<?xml version="1.0" encoding="UTF-8" standalone="no"?>
<!-- Created with Inkscape (http://www.inkscape.org/) -->

<svg
   width="193.22757mm"
   height="207.71964mm"
   viewBox="0 0 193.22757 207.71964"
   version="1.1"
   id="svg1"
   inkscape:version="1.4 (e7c3feb100, 2024-10-09)"
   sodipodi:docname="hogestad-metro-logo-block.svg"
   xml:space="preserve"
   xmlns:inkscape="http://www.inkscape.org/namespaces/inkscape"
   xmlns:sodipodi="http://sodipodi.sourceforge.net/DTD/sodipodi-0.dtd"
   xmlns="http://www.w3.org/2000/svg"
   xmlns:svg="http://www.w3.org/2000/svg"><sodipodi:namedview
     id="namedview1"
     pagecolor="#ffffff"
     bordercolor="#000000"
     borderopacity="0.25"
     inkscape:showpageshadow="2"
     inkscape:pageopacity="0.0"
     inkscape:pagecheckerboard="0"
     inkscape:deskcolor="#d1d1d1"
     inkscape:document-units="mm"
     inkscape:zoom="0.51936728"
     inkscape:cx="361.9789"
     inkscape:cy="553.55816"
     inkscape:window-width="1536"
     inkscape:window-height="792"
     inkscape:window-x="0"
     inkscape:window-y="0"
     inkscape:window-maximized="1"
     inkscape:current-layer="layer5" /><defs
     id="defs1" /><g
     inkscape:label="Layer 1"
     inkscape:groupmode="layer"
     id="layer1"
     transform="translate(-9.0027399,-2.1511504)"><g
       id="g1"
       transform="matrix(0.64409189,0,0,0.64409189,9.0027399,2.1511504)"
       style="display:inline"><rect
         class="st0"
         width="300"
         height="322.5"
         id="rect1"
         x="0"
         y="0" /><rect
         class="st1"
         y="252.39999"
         width="300"
         height="70"
         id="rect2"
         x="0" /><polygon
         class="st2"
         points="242.4,223.8 242.4,39 183.2,39 150.7,161.9 150.2,161.9 119.1,39 57.7,39 57.7,223.8 95.9,223.8 95,81.9 95.4,81.9 131.1,223.8 167,223.8 204.4,81.9 204.8,81.9 204.2,223.8 "
         id="polygon2" /></g><g
       inkscape:groupmode="layer"
       id="layer2"
       inkscape:label="Layer 2" /><g
       inkscape:groupmode="layer"
       id="layer3"
       inkscape:label="Layer 3" /><g
       inkscape:groupmode="layer"
       id="layer4"
       inkscape:label="Layer 4"
       style="display:inline" /><g
       inkscape:groupmode="layer"
       id="layer5"
       inkscape:label="Layer 5"
       style="display:inline"><path
         style="display:inline;fill:#ffffff;stroke-width:1.13582"
         d="m 32.085308,198.08922 -0.843186,-0.72492 -0.09018,-10.10179 -0.09018,-10.10179 0.893514,-0.89352 0.893515,-0.89351 h 5.84222 c 3.213208,0 6.526823,0.12983 7.363569,0.28852 3.636449,0.68964 6.694243,3.08107 7.833696,6.12654 0.589899,1.57665 0.6441,2.30324 0.6441,8.63581 v 6.91432 l -0.737646,0.73763 c -0.933984,0.93398 -2.000233,0.93854 -3.077217,0.0132 l -0.843186,-0.72452 -0.150257,-6.91773 c -0.170373,-7.84396 -0.19435,-7.92614 -2.731292,-9.36384 -1.230455,-0.69732 -1.664554,-0.75857 -6.041545,-0.85253 l -4.71584,-0.1012 -0.09246,8.61732 -0.09246,8.61731 -0.843186,0.72486 c -1.069941,0.91979 -2.052038,0.91977 -3.121934,-7e-5 z m 27.232196,-0.15351 -0.878431,-0.87844 v -9.96335 -9.96335 l 0.878431,-0.87844 c 1.074212,-1.07421 2.108693,-1.12339 3.236936,-0.15388 0.832703,0.71554 0.844413,0.77346 0.942195,4.65804 l 0.09904,3.93348 h 7.308652 7.308642 l 0.10529,-3.88283 c 0.09825,-3.622 0.154256,-3.9349 0.833861,-4.65803 1.325308,-1.41019 3.612199,-0.79698 4.085074,1.09538 0.09393,0.37609 0.131233,5.05695 0.0828,10.4019 l -0.08814,9.71807 -0.875455,0.75271 c -1.015933,0.87348 -2.32334,0.78721 -3.330766,-0.21977 -0.527724,-0.5275 -0.615079,-1.08331 -0.707387,-4.50048 l -0.105291,-3.89865 h -7.308641 -7.308652 l -0.09904,3.93349 c -0.09779,3.88457 -0.109493,3.94249 -0.942196,4.65804 -1.128242,0.96951 -2.162723,0.92033 -3.236935,-0.15389 z m 43.690216,0.15351 -0.84319,-0.72492 -0.0902,-10.10179 -0.0902,-10.10179 0.89351,-0.89352 0.89351,-0.89351 h 5.84221 c 3.21322,0 6.52683,0.12983 7.36357,0.28852 3.63645,0.68964 6.69425,3.08107 7.83371,6.12654 0.5899,1.57665 0.64409,2.30324 0.64409,8.63581 v 6.91432 l -0.73764,0.73763 c -0.93398,0.93398 -2.00023,0.93854 -3.07721,0.0132 l -0.84319,-0.72452 -0.15026,-6.91773 c -0.17038,-7.84396 -0.19435,-7.92614 -2.73129,-9.36384 -1.23045,-0.69732 -1.66455,-0.75857 -6.04155,-0.85253 l -4.71584,-0.1012 -0.0925,8.61732 -0.0925,8.61731 -0.84318,0.72486 c -1.06994,0.91979 -2.05204,0.91977 -3.12194,-7e-5 z m 32.4715,0.39707 c -1.32583,-0.38415 -3.73665,-2.64356 -4.69027,-4.39567 -1.52929,-2.80981 -1.83361,-8.94692 -0.62866,-12.67783 0.66059,-2.04538 2.7641,-4.40372 4.75469,-5.33068 1.45304,-0.67663 1.78354,-0.70265 8.96019,-0.70548 l 7.45149,-0.003 0.73764,0.73765 c 1.03409,1.03409 1.00931,2.61126 -0.0542,3.44781 -0.74757,0.58804 -1.16824,0.62285 -7.52789,0.62285 -7.55708,0 -7.95569,0.088 -9.15487,2.02121 -0.60464,0.97477 -0.71886,1.60801 -0.81239,4.50416 -0.0972,3.00892 -0.0366,3.51912 0.56532,4.76253 1.18255,2.44285 1.51871,2.53354 9.39592,2.53483 l 6.85046,0.001 0.73764,0.73764 c 0.46498,0.46498 0.73763,1.08099 0.73763,1.66652 0,0.58551 -0.27265,1.20154 -0.73763,1.66651 l -0.73764,0.73763 -7.45149,-0.0272 c -4.09833,-0.0149 -7.8765,-0.15024 -8.39595,-0.30075 z m 31.32355,-0.59676 -0.77801,-0.92461 v -8.39146 -8.39147 h -3.7319 c -2.05255,0 -3.95082,-0.084 -4.21838,-0.18668 -0.73256,-0.2811 -1.40723,-1.79748 -1.18814,-2.67041 0.10472,-0.41726 0.53152,-1.02696 0.94845,-1.35492 0.72169,-0.56768 1.23978,-0.59629 10.79857,-0.59629 h 10.0405 l 0.73765,0.73764 c 1.03409,1.0341 1.0093,2.61126 -0.0542,3.44782 -0.70365,0.55348 -1.2037,0.62284 -4.49062,0.62284 h -3.69879 l -0.0924,8.59122 -0.0923,8.59122 -0.84318,0.72486 c -1.18291,1.0169 -2.37359,0.94564 -3.33737,-0.19976 z m -76.370898,-7.15322 c -1.518022,-0.68955 -2.728339,-2.10241 -3.153465,-3.6812 -0.898341,-3.33621 1.800716,-6.87312 5.244975,-6.87312 1.84068,0 3.12711,0.56995 4.299,1.90466 2.60349,2.96521 1.58893,7.2122 -2.09013,8.74941 -1.45971,0.6099 -2.80686,0.57866 -4.30038,-0.0997 z m 48.551418,-0.58576 c -3.19187,-3.19186 -0.0162,-8.53857 3.87593,-6.52583 1.06359,0.54999 1.82871,2.1296 1.82871,3.77536 0,1.07124 -0.18037,1.44752 -1.16672,2.43386 -0.98441,0.98442 -1.36368,1.16673 -2.42726,1.16673 -0.98296,0 -1.44775,-0.18721 -2.11066,-0.85012 z"
         id="path1" /></g></g><style
     type="text/css"
     id="style1">
	.st0{fill-rule:evenodd;clip-rule:evenodd;fill:#243C7D;}
	.st1{fill-rule:evenodd;clip-rule:evenodd;fill:#EE3124;}
	.st2{fill-rule:evenodd;clip-rule:evenodd;fill:#FFFFFF;}
	.st3{fill:#FFFFFF;}
</style></svg>
